<svg version="1.1" id="Layer_1" xmlns="http://www.w3.org/2000/svg" xmlns:xlink="http://www.w3.org/1999/xlink" x="0px" y="0px"
	 width="100%" viewBox="0 0 118 179" enable-background="new 0 0 118 179" xml:space="preserve">
<path fill="none" opacity="1.000000" stroke="#000000" stroke-linecap="round" stroke-linejoin="round" stroke-width="4.000000"
	d="
M31.500000,98.500000 
	C37.480232,96.762169 43.629974,95.692924 49.517029,93.546715 
	C57.073307,90.791977 59.516125,84.173164 57.882801,78.031166 
	C56.177910,71.620056 47.936108,67.881317 41.505375,70.016190 
	C34.930614,72.198875 28.263817,74.019279 21.500177,75.500809 
	C13.036754,77.354660 8.676275,84.784851 10.973079,93.007523 
	C14.410014,105.311920 17.726768,117.650864 20.975559,130.006424 
	C22.692636,136.536697 25.052681,138.590576 32.500000,139.029465 
	C32.500000,148.994446 32.500000,159.005554 32.500000,169.250000 
	C53.000000,169.250000 73.000000,169.250000 93.250000,169.250000 
	C93.250000,159.172318 93.250000,149.336151 93.250000,139.582291 
	C95.499817,138.832733 97.836319,138.613220 99.433098,137.411133 
	C103.287712,134.509293 105.646004,130.903076 105.607483,125.499237 
	C105.386536,94.500809 105.373589,63.499012 105.615417,32.500900 
	C105.659439,26.858463 103.947754,22.672897 98.948608,20.625488 
	C94.658920,18.868637 90.280098,19.570118 86.972260,23.476509 
	C86.681267,23.820156 86.000000,23.833332 85.500000,23.999998 
"/>
<path fill="none" opacity="1.000000" stroke="#000000" stroke-linecap="round" stroke-linejoin="round" stroke-width="3.000000"
	d="
M40.000000,18.000000 
	C37.277317,15.562704 34.307369,13.414540 30.501795,13.550298 
	C24.661785,13.758630 20.137539,18.291451 20.064724,24.500759 
	C19.873213,40.831844 19.995562,57.166676 20.020998,73.499969 
	C20.021778,74.000229 20.333334,74.500000 20.500000,75.000000 
"/>
<path fill="none" opacity="1.000000" stroke="#000000" stroke-linecap="round" stroke-linejoin="round" stroke-width="3.000000"
	d="
M84.000000,78.500000 
	C84.000000,65.333336 83.961967,52.166492 84.022957,39.000107 
	C84.041489,34.999420 84.231422,30.992516 84.524490,27.001799 
	C84.937981,21.371199 82.885803,17.454525 78.000000,15.000001 
	C73.048691,12.512567 70.423424,13.186602 65.456215,17.448977 
	C62.776459,19.748478 63.009010,22.588617 63.006771,25.500006 
	C62.993191,43.166664 63.000000,60.833332 63.000000,78.500000 
"/>
<path fill="none" opacity="1.000000" stroke="#000000" stroke-linecap="round" stroke-linejoin="round" stroke-width="4.000000"
	d="
M64.000000,18.250000 
	C61.999310,13.955891 60.403542,9.383426 55.006348,7.975668 
	C47.594387,6.042398 41.024948,11.544739 41.222240,18.994114 
	C41.606499,33.502979 41.189968,48.001583 41.493153,62.500145 
	C41.541927,64.832458 41.500000,67.166664 41.500000,69.500000 
"/>
<path fill="none" opacity="1.000000" stroke="#000000" stroke-linecap="round" stroke-linejoin="round" stroke-width="3.000000"
	d="
M43.000000,98.000000 
	C53.579575,102.884804 61.872982,110.008240 65.463455,121.511406 
	C66.977921,126.363441 68.063477,131.343658 67.000000,136.500000 
"/>
</svg>