<svg version="1.1" id="Layer_1" xmlns="http://www.w3.org/2000/svg" xmlns:xlink="http://www.w3.org/1999/xlink" x="0px" y="0px"
	 width="100%" viewBox="0 0 118 170" enable-background="new 0 0 118 170" xml:space="preserve">
<path fill="none" opacity="1.000000" stroke="#000000" stroke-linecap="round" stroke-linejoin="round" stroke-width="3.000000"
	d="
M44.000000,82.500000 
	C46.392010,80.228851 49.940002,80.692787 52.566055,78.582184 
	C57.981064,74.230057 58.686676,68.392212 56.447861,63.021736 
	C54.099033,57.387371 46.550018,53.576935 41.035820,55.597748 
	C33.995785,58.177746 26.686880,59.580933 19.532404,61.614029 
	C9.921326,64.345238 5.633497,71.123909 8.372808,80.039078 
	C12.526132,93.556213 15.979503,107.296539 19.433249,121.016800 
	C20.969862,127.121124 25.686201,127.682457 30.499977,128.500031 
	C30.500000,137.333328 30.644260,146.170197 30.428492,154.998245 
	C30.343037,158.494644 31.294981,160.062134 35.000221,160.043030 
	C53.333065,159.948547 71.666931,159.948532 89.999779,160.043015 
	C93.705017,160.062119 94.656967,158.494644 94.571510,154.998245 
	C94.355743,146.170197 94.500000,137.333328 94.498657,128.497833 
	C98.514717,127.164803 102.705399,126.148125 105.012589,122.007011 
	C106.321327,119.657997 107.160179,117.299049 107.048683,114.498062 
	C106.730453,106.503853 106.580009,98.469894 106.708214,90.503349 
	C106.887924,79.335922 106.722176,68.164246 107.030289,57.000835 
	C107.149635,52.676598 105.589912,49.453201 102.025162,46.963963 
	C98.619171,44.585575 95.049751,44.282692 91.533424,46.065907 
	C87.791565,47.963497 84.831932,50.563446 84.945793,55.501251 
	C85.141708,63.996731 85.102509,72.501640 84.966843,80.999474 
	C84.862556,87.531563 81.539841,91.390236 75.500000,92.499992 
	C69.793777,93.548462 65.772781,90.638985 62.869324,84.562439 
	C61.480949,81.656761 62.596081,79.158722 62.550705,76.499138 
	C62.411415,68.334846 62.326851,60.161194 62.584862,52.002686 
	C62.688694,48.719482 63.181583,45.657612 61.578384,42.460693 
	C59.157169,37.632565 54.162769,34.478298 49.500000,35.499996 
	C43.453728,36.824852 39.624733,41.700241 39.985584,47.500896 
	C40.151482,50.167637 39.699440,52.872952 40.500000,55.500000 
"/>
<path fill="none" opacity="1.000000" stroke="#000000" stroke-linecap="round" stroke-linejoin="round" stroke-width="3.000000"
	d="
M28.500000,86.000000 
	C31.000000,85.333336 33.466591,84.343529 36.008347,84.080734 
	C39.282543,83.742195 42.683525,83.170403 45.534367,85.964943 
	C48.991722,89.354019 53.164986,91.901245 56.546432,95.455826 
	C64.619141,103.941902 67.700310,114.029892 67.000000,125.500000 
"/>
<path fill="none" opacity="1.000000" stroke="#000000" stroke-linecap="round" stroke-linejoin="round" stroke-width="3.000000"
	d="
M39.750000,44.000000 
	C37.666996,43.642456 37.094208,41.414021 35.487316,40.522869 
	C31.773081,38.463001 28.068878,37.655010 23.966103,39.939114 
	C20.083635,42.100563 17.926697,45.076298 18.023748,49.499477 
	C18.111538,53.500549 17.515270,57.534084 18.500000,61.500000 
"/>
<path fill="none" opacity="1.000000" stroke="#000000" stroke-linecap="round" stroke-linejoin="round" stroke-width="3.000000"
	d="
M84.500000,88.000000 
	C86.767517,90.925758 88.645004,94.270325 92.500328,95.498978 
	C97.756790,97.174149 101.786613,94.848167 105.500000,91.500000 
"/>
<path fill="none" opacity="1.000000" stroke="#000000" stroke-linecap="round" stroke-linejoin="round" stroke-width="3.000000"
	d="
M64.000000,47.000000 
	C72.495041,38.799892 78.828804,39.884235 84.523842,50.487194 
	C84.667953,50.755497 85.166664,50.833332 85.500000,51.000000 
"/>
<path fill="none" opacity="1.000000" stroke="#000000" stroke-linecap="round" stroke-linejoin="round" stroke-width="3.000000"
	d="
M61.000000,82.000000 
	C57.641586,86.137688 52.482655,86.019608 48.000000,87.500000 
"/>
</svg>