<svg version="1.1" id="Layer_1" xmlns="http://www.w3.org/2000/svg" xmlns:xlink="http://www.w3.org/1999/xlink" x="0px" y="0px"
	 width="100%" viewBox="0 0 118 171" enable-background="new 0 0 118 171" xml:space="preserve">
<path fill="none" opacity="1.000000" stroke="#000000" stroke-linecap="round" stroke-linejoin="round" stroke-width="3.000000"
	d="
M33.500000,94.000000 
	C39.666668,92.333336 45.870926,90.792389 51.988918,88.962944 
	C57.567303,87.294830 60.297337,83.021141 60.393337,77.498146 
	C60.478031,72.625931 58.183739,68.453758 53.463146,66.593521 
	C49.814465,65.155678 46.002911,64.890472 41.959152,66.389832 
	C36.287571,68.492752 30.389172,70.074020 24.486853,71.443336 
	C15.732697,73.474266 11.825761,79.065704 14.026112,87.493179 
	C17.427065,100.519043 20.946974,113.514618 24.524588,126.493225 
	C26.081961,132.142960 28.095558,133.433609 35.000000,133.505188 
	C35.000000,143.495544 35.000000,153.504990 35.000000,163.500000 
	C55.166668,163.500000 74.833336,163.500000 95.000000,163.500000 
	C95.000000,153.505508 95.000000,143.494476 95.000000,133.610855 
	C104.117493,131.589523 107.000000,128.080383 107.000000,119.500000 
	C107.000000,102.500000 106.903343,85.499130 107.056374,68.500511 
	C107.104980,63.101948 105.773499,58.876614 100.510147,56.477730 
	C95.273781,54.091145 91.400078,56.078911 87.986115,59.987869 
	C87.759300,60.247570 87.333336,60.333336 87.000000,60.500004 
"/>
<path fill="none" opacity="1.000000" stroke="#000000" stroke-linecap="round" stroke-linejoin="round" stroke-width="3.000000"
	d="
M42.500000,62.000000 
	C38.461117,54.304420 37.644020,45.624622 35.053074,37.483109 
	C32.957989,30.899742 31.429569,24.138252 29.472021,17.508263 
	C27.638592,11.298641 22.427145,8.381651 16.500000,10.000000 
	C10.968316,11.510373 7.921073,17.038509 9.515906,22.995741 
	C13.802664,39.008209 18.166666,55.000000 22.500000,71.000000 
"/>
<path fill="none" opacity="1.000000" stroke="#000000" stroke-linecap="round" stroke-linejoin="round" stroke-width="3.000000"
	d="
M85.500000,95.500000 
	C83.890282,95.252090 83.350327,96.687042 82.526619,97.526131 
	C79.285622,100.827591 75.652260,101.256187 71.491295,99.520874 
	C67.208641,97.734802 64.995872,94.493889 65.045647,90.000504 
	C65.161949,79.500397 65.373024,68.976685 65.273514,58.502151 
	C65.132607,43.670078 65.384346,28.827971 64.923988,14.002360 
	C64.751747,8.455690 59.046783,4.028300 53.999847,4.498374 
	C48.188225,5.039672 44.052151,9.261039 44.022415,15.000116 
	C43.952461,28.499754 43.801872,42.005016 44.143345,55.496372 
	C44.225723,58.751328 41.799603,61.735065 43.500000,65.000000 
"/>
<path fill="none" opacity="1.000000" stroke="#000000" stroke-linecap="round" stroke-linejoin="round" stroke-width="3.000000"
	d="
M44.000000,92.500000 
	C49.833916,95.854240 56.018986,98.629700 60.529755,103.974892 
	C67.279701,111.973465 69.637360,121.306564 69.500000,131.500000 
"/>
<path fill="none" opacity="1.000000" stroke="#000000" stroke-linecap="round" stroke-linejoin="round" stroke-width="3.000000"
	d="
M66.500000,56.500000 
	C68.333336,55.333336 70.042221,53.860332 72.022667,53.055805 
	C78.726074,50.332668 86.499817,56.816303 86.110603,64.005989 
	C85.642807,72.647331 86.299828,81.348618 85.859322,89.992828 
	C85.670784,93.692642 86.009697,96.695450 88.472610,99.523849 
	C92.573456,104.233238 98.156982,104.878700 103.003029,101.003792 
	C103.765266,100.394295 104.175163,99.180824 105.500000,99.500000 
"/>
</svg>